<mxfile host="app.diagrams.net" modified="2023-12-01T01:55:15.228Z" agent="Mozilla/5.0 (Windows NT 10.0; Win64; x64) AppleWebKit/537.36 (KHTML, like Gecko) Chrome/119.0.0.0 Safari/537.36" etag="lY3Vpz7HbGupLG-eagK-" version="22.1.5" type="github">
  <diagram id="C5RBs43oDa-KdzZeNtuy" name="Page-1">
    <mxGraphModel dx="1750" dy="903" grid="1" gridSize="10" guides="1" tooltips="1" connect="1" arrows="1" fold="1" page="1" pageScale="1" pageWidth="827" pageHeight="1169" math="0" shadow="0">
      <root>
        <mxCell id="WIyWlLk6GJQsqaUBKTNV-0" />
        <mxCell id="WIyWlLk6GJQsqaUBKTNV-1" parent="WIyWlLk6GJQsqaUBKTNV-0" />
        <mxCell id="86Y6fayjuDsxbSv3DjJf-2" style="edgeStyle=orthogonalEdgeStyle;rounded=0;orthogonalLoop=1;jettySize=auto;html=1;exitX=0.5;exitY=1;exitDx=0;exitDy=0;entryX=0.5;entryY=0;entryDx=0;entryDy=0;" edge="1" parent="WIyWlLk6GJQsqaUBKTNV-1" source="86Y6fayjuDsxbSv3DjJf-0" target="86Y6fayjuDsxbSv3DjJf-1">
          <mxGeometry relative="1" as="geometry" />
        </mxCell>
        <mxCell id="86Y6fayjuDsxbSv3DjJf-0" value="Start" style="ellipse;whiteSpace=wrap;html=1;" vertex="1" parent="WIyWlLk6GJQsqaUBKTNV-1">
          <mxGeometry x="330" y="20" width="120" height="80" as="geometry" />
        </mxCell>
        <mxCell id="86Y6fayjuDsxbSv3DjJf-4" style="edgeStyle=orthogonalEdgeStyle;rounded=0;orthogonalLoop=1;jettySize=auto;html=1;exitX=0.5;exitY=1;exitDx=0;exitDy=0;" edge="1" parent="WIyWlLk6GJQsqaUBKTNV-1" source="86Y6fayjuDsxbSv3DjJf-1" target="86Y6fayjuDsxbSv3DjJf-3">
          <mxGeometry relative="1" as="geometry" />
        </mxCell>
        <mxCell id="86Y6fayjuDsxbSv3DjJf-1" value="Include libraries: cstdio, iostream, vector, string" style="rounded=1;whiteSpace=wrap;html=1;" vertex="1" parent="WIyWlLk6GJQsqaUBKTNV-1">
          <mxGeometry x="330" y="120" width="120" height="60" as="geometry" />
        </mxCell>
        <mxCell id="86Y6fayjuDsxbSv3DjJf-12" style="edgeStyle=orthogonalEdgeStyle;rounded=0;orthogonalLoop=1;jettySize=auto;html=1;exitX=0.5;exitY=1;exitDx=0;exitDy=0;" edge="1" parent="WIyWlLk6GJQsqaUBKTNV-1" source="86Y6fayjuDsxbSv3DjJf-3" target="86Y6fayjuDsxbSv3DjJf-9">
          <mxGeometry relative="1" as="geometry" />
        </mxCell>
        <mxCell id="86Y6fayjuDsxbSv3DjJf-13" style="edgeStyle=orthogonalEdgeStyle;rounded=0;orthogonalLoop=1;jettySize=auto;html=1;exitX=0.5;exitY=1;exitDx=0;exitDy=0;entryX=0.5;entryY=0;entryDx=0;entryDy=0;" edge="1" parent="WIyWlLk6GJQsqaUBKTNV-1" source="86Y6fayjuDsxbSv3DjJf-3" target="86Y6fayjuDsxbSv3DjJf-10">
          <mxGeometry relative="1" as="geometry" />
        </mxCell>
        <mxCell id="86Y6fayjuDsxbSv3DjJf-14" style="edgeStyle=orthogonalEdgeStyle;rounded=0;orthogonalLoop=1;jettySize=auto;html=1;exitX=0.5;exitY=1;exitDx=0;exitDy=0;entryX=0.5;entryY=0;entryDx=0;entryDy=0;" edge="1" parent="WIyWlLk6GJQsqaUBKTNV-1" source="86Y6fayjuDsxbSv3DjJf-3" target="86Y6fayjuDsxbSv3DjJf-11">
          <mxGeometry relative="1" as="geometry" />
        </mxCell>
        <mxCell id="86Y6fayjuDsxbSv3DjJf-3" value="Use namespace std" style="rounded=1;whiteSpace=wrap;html=1;" vertex="1" parent="WIyWlLk6GJQsqaUBKTNV-1">
          <mxGeometry x="330" y="200" width="120" height="60" as="geometry" />
        </mxCell>
        <mxCell id="86Y6fayjuDsxbSv3DjJf-81" style="edgeStyle=orthogonalEdgeStyle;rounded=0;orthogonalLoop=1;jettySize=auto;html=1;exitX=0.5;exitY=1;exitDx=0;exitDy=0;entryX=0;entryY=0.5;entryDx=0;entryDy=0;" edge="1" parent="WIyWlLk6GJQsqaUBKTNV-1" source="86Y6fayjuDsxbSv3DjJf-9" target="86Y6fayjuDsxbSv3DjJf-15">
          <mxGeometry relative="1" as="geometry">
            <Array as="points">
              <mxPoint x="250" y="410" />
            </Array>
          </mxGeometry>
        </mxCell>
        <mxCell id="86Y6fayjuDsxbSv3DjJf-9" value="Input a vector array with names of books" style="shape=parallelogram;perimeter=parallelogramPerimeter;whiteSpace=wrap;html=1;fixedSize=1;" vertex="1" parent="WIyWlLk6GJQsqaUBKTNV-1">
          <mxGeometry x="170" y="300" width="160" height="60" as="geometry" />
        </mxCell>
        <mxCell id="86Y6fayjuDsxbSv3DjJf-82" style="edgeStyle=orthogonalEdgeStyle;rounded=0;orthogonalLoop=1;jettySize=auto;html=1;exitX=0.5;exitY=1;exitDx=0;exitDy=0;entryX=1;entryY=0.5;entryDx=0;entryDy=0;" edge="1" parent="WIyWlLk6GJQsqaUBKTNV-1" source="86Y6fayjuDsxbSv3DjJf-10" target="86Y6fayjuDsxbSv3DjJf-15">
          <mxGeometry relative="1" as="geometry">
            <Array as="points">
              <mxPoint x="530" y="410" />
            </Array>
          </mxGeometry>
        </mxCell>
        <mxCell id="86Y6fayjuDsxbSv3DjJf-10" value="Input a bool array&lt;br&gt;&amp;nbsp;to check whether &lt;br&gt;books are available" style="shape=parallelogram;perimeter=parallelogramPerimeter;whiteSpace=wrap;html=1;fixedSize=1;" vertex="1" parent="WIyWlLk6GJQsqaUBKTNV-1">
          <mxGeometry x="450" y="300" width="160" height="60" as="geometry" />
        </mxCell>
        <mxCell id="86Y6fayjuDsxbSv3DjJf-20" style="edgeStyle=orthogonalEdgeStyle;rounded=0;orthogonalLoop=1;jettySize=auto;html=1;exitX=0.5;exitY=1;exitDx=0;exitDy=0;entryX=0.5;entryY=0;entryDx=0;entryDy=0;" edge="1" parent="WIyWlLk6GJQsqaUBKTNV-1" source="86Y6fayjuDsxbSv3DjJf-11" target="86Y6fayjuDsxbSv3DjJf-15">
          <mxGeometry relative="1" as="geometry" />
        </mxCell>
        <mxCell id="86Y6fayjuDsxbSv3DjJf-11" value="Input int &lt;br&gt;option and string name" style="shape=parallelogram;perimeter=parallelogramPerimeter;whiteSpace=wrap;html=1;fixedSize=1;" vertex="1" parent="WIyWlLk6GJQsqaUBKTNV-1">
          <mxGeometry x="330" y="300" width="120" height="60" as="geometry" />
        </mxCell>
        <mxCell id="86Y6fayjuDsxbSv3DjJf-19" style="edgeStyle=orthogonalEdgeStyle;rounded=0;orthogonalLoop=1;jettySize=auto;html=1;exitX=0.5;exitY=1;exitDx=0;exitDy=0;entryX=0.5;entryY=0;entryDx=0;entryDy=0;" edge="1" parent="WIyWlLk6GJQsqaUBKTNV-1" source="86Y6fayjuDsxbSv3DjJf-15" target="86Y6fayjuDsxbSv3DjJf-18">
          <mxGeometry relative="1" as="geometry" />
        </mxCell>
        <mxCell id="86Y6fayjuDsxbSv3DjJf-15" value="Output a menu &lt;br&gt;to display and&amp;nbsp;&lt;br&gt;a continuation" style="shape=parallelogram;perimeter=parallelogramPerimeter;whiteSpace=wrap;html=1;fixedSize=1;" vertex="1" parent="WIyWlLk6GJQsqaUBKTNV-1">
          <mxGeometry x="320" y="380" width="140" height="60" as="geometry" />
        </mxCell>
        <mxCell id="86Y6fayjuDsxbSv3DjJf-24" style="edgeStyle=orthogonalEdgeStyle;rounded=0;orthogonalLoop=1;jettySize=auto;html=1;exitX=0.5;exitY=1;exitDx=0;exitDy=0;entryX=0.5;entryY=0;entryDx=0;entryDy=0;" edge="1" parent="WIyWlLk6GJQsqaUBKTNV-1" source="86Y6fayjuDsxbSv3DjJf-18" target="86Y6fayjuDsxbSv3DjJf-23">
          <mxGeometry relative="1" as="geometry" />
        </mxCell>
        <mxCell id="86Y6fayjuDsxbSv3DjJf-18" value="Enter a number &lt;br&gt;of an option" style="shape=parallelogram;perimeter=parallelogramPerimeter;whiteSpace=wrap;html=1;fixedSize=1;" vertex="1" parent="WIyWlLk6GJQsqaUBKTNV-1">
          <mxGeometry x="320" y="460" width="120" height="60" as="geometry" />
        </mxCell>
        <mxCell id="86Y6fayjuDsxbSv3DjJf-29" style="edgeStyle=orthogonalEdgeStyle;rounded=0;orthogonalLoop=1;jettySize=auto;html=1;exitX=0.5;exitY=1;exitDx=0;exitDy=0;entryX=0.5;entryY=0;entryDx=0;entryDy=0;" edge="1" parent="WIyWlLk6GJQsqaUBKTNV-1" source="86Y6fayjuDsxbSv3DjJf-23" target="86Y6fayjuDsxbSv3DjJf-25">
          <mxGeometry relative="1" as="geometry" />
        </mxCell>
        <mxCell id="86Y6fayjuDsxbSv3DjJf-23" value="Switch option:" style="rounded=1;whiteSpace=wrap;html=1;" vertex="1" parent="WIyWlLk6GJQsqaUBKTNV-1">
          <mxGeometry x="320" y="540" width="120" height="60" as="geometry" />
        </mxCell>
        <mxCell id="86Y6fayjuDsxbSv3DjJf-30" style="edgeStyle=orthogonalEdgeStyle;rounded=0;orthogonalLoop=1;jettySize=auto;html=1;exitX=0.5;exitY=1;exitDx=0;exitDy=0;entryX=0.5;entryY=0;entryDx=0;entryDy=0;" edge="1" parent="WIyWlLk6GJQsqaUBKTNV-1" source="86Y6fayjuDsxbSv3DjJf-25" target="86Y6fayjuDsxbSv3DjJf-26">
          <mxGeometry relative="1" as="geometry" />
        </mxCell>
        <mxCell id="86Y6fayjuDsxbSv3DjJf-40" style="edgeStyle=orthogonalEdgeStyle;rounded=0;orthogonalLoop=1;jettySize=auto;html=1;exitX=1;exitY=0.5;exitDx=0;exitDy=0;entryX=0;entryY=0.5;entryDx=0;entryDy=0;" edge="1" parent="WIyWlLk6GJQsqaUBKTNV-1" source="86Y6fayjuDsxbSv3DjJf-25" target="86Y6fayjuDsxbSv3DjJf-39">
          <mxGeometry relative="1" as="geometry" />
        </mxCell>
        <mxCell id="86Y6fayjuDsxbSv3DjJf-25" value="Case 1" style="rhombus;whiteSpace=wrap;html=1;" vertex="1" parent="WIyWlLk6GJQsqaUBKTNV-1">
          <mxGeometry x="340" y="620" width="80" height="80" as="geometry" />
        </mxCell>
        <mxCell id="86Y6fayjuDsxbSv3DjJf-31" style="edgeStyle=orthogonalEdgeStyle;rounded=0;orthogonalLoop=1;jettySize=auto;html=1;exitX=0.5;exitY=1;exitDx=0;exitDy=0;entryX=0.5;entryY=0;entryDx=0;entryDy=0;" edge="1" parent="WIyWlLk6GJQsqaUBKTNV-1" source="86Y6fayjuDsxbSv3DjJf-26" target="86Y6fayjuDsxbSv3DjJf-27">
          <mxGeometry relative="1" as="geometry" />
        </mxCell>
        <mxCell id="86Y6fayjuDsxbSv3DjJf-45" style="edgeStyle=orthogonalEdgeStyle;rounded=0;orthogonalLoop=1;jettySize=auto;html=1;exitX=1;exitY=0.5;exitDx=0;exitDy=0;entryX=0;entryY=0.5;entryDx=0;entryDy=0;" edge="1" parent="WIyWlLk6GJQsqaUBKTNV-1" source="86Y6fayjuDsxbSv3DjJf-26" target="86Y6fayjuDsxbSv3DjJf-44">
          <mxGeometry relative="1" as="geometry" />
        </mxCell>
        <mxCell id="86Y6fayjuDsxbSv3DjJf-26" value="Case 2" style="rhombus;whiteSpace=wrap;html=1;" vertex="1" parent="WIyWlLk6GJQsqaUBKTNV-1">
          <mxGeometry x="340" y="745" width="80" height="80" as="geometry" />
        </mxCell>
        <mxCell id="86Y6fayjuDsxbSv3DjJf-32" style="edgeStyle=orthogonalEdgeStyle;rounded=0;orthogonalLoop=1;jettySize=auto;html=1;exitX=0.5;exitY=1;exitDx=0;exitDy=0;entryX=0.5;entryY=0;entryDx=0;entryDy=0;" edge="1" parent="WIyWlLk6GJQsqaUBKTNV-1" source="86Y6fayjuDsxbSv3DjJf-27" target="86Y6fayjuDsxbSv3DjJf-28">
          <mxGeometry relative="1" as="geometry" />
        </mxCell>
        <mxCell id="86Y6fayjuDsxbSv3DjJf-64" style="edgeStyle=orthogonalEdgeStyle;rounded=0;orthogonalLoop=1;jettySize=auto;html=1;exitX=1;exitY=0.5;exitDx=0;exitDy=0;" edge="1" parent="WIyWlLk6GJQsqaUBKTNV-1" source="86Y6fayjuDsxbSv3DjJf-27" target="86Y6fayjuDsxbSv3DjJf-57">
          <mxGeometry relative="1" as="geometry" />
        </mxCell>
        <mxCell id="86Y6fayjuDsxbSv3DjJf-27" value="Case 3" style="rhombus;whiteSpace=wrap;html=1;" vertex="1" parent="WIyWlLk6GJQsqaUBKTNV-1">
          <mxGeometry x="340" y="915" width="80" height="80" as="geometry" />
        </mxCell>
        <mxCell id="86Y6fayjuDsxbSv3DjJf-34" style="edgeStyle=orthogonalEdgeStyle;rounded=0;orthogonalLoop=1;jettySize=auto;html=1;exitX=0.5;exitY=1;exitDx=0;exitDy=0;entryX=0.5;entryY=0;entryDx=0;entryDy=0;" edge="1" parent="WIyWlLk6GJQsqaUBKTNV-1" source="86Y6fayjuDsxbSv3DjJf-28" target="86Y6fayjuDsxbSv3DjJf-33">
          <mxGeometry relative="1" as="geometry" />
        </mxCell>
        <mxCell id="86Y6fayjuDsxbSv3DjJf-73" style="edgeStyle=orthogonalEdgeStyle;rounded=0;orthogonalLoop=1;jettySize=auto;html=1;exitX=1;exitY=0.5;exitDx=0;exitDy=0;entryX=0;entryY=0.5;entryDx=0;entryDy=0;" edge="1" parent="WIyWlLk6GJQsqaUBKTNV-1" source="86Y6fayjuDsxbSv3DjJf-28" target="86Y6fayjuDsxbSv3DjJf-72">
          <mxGeometry relative="1" as="geometry" />
        </mxCell>
        <mxCell id="86Y6fayjuDsxbSv3DjJf-28" value="Case 4" style="rhombus;whiteSpace=wrap;html=1;" vertex="1" parent="WIyWlLk6GJQsqaUBKTNV-1">
          <mxGeometry x="340" y="1050" width="80" height="80" as="geometry" />
        </mxCell>
        <mxCell id="86Y6fayjuDsxbSv3DjJf-84" style="edgeStyle=orthogonalEdgeStyle;rounded=0;orthogonalLoop=1;jettySize=auto;html=1;exitX=1;exitY=0.5;exitDx=0;exitDy=0;entryX=0;entryY=0.5;entryDx=0;entryDy=0;" edge="1" parent="WIyWlLk6GJQsqaUBKTNV-1" source="86Y6fayjuDsxbSv3DjJf-33" target="86Y6fayjuDsxbSv3DjJf-83">
          <mxGeometry relative="1" as="geometry" />
        </mxCell>
        <mxCell id="86Y6fayjuDsxbSv3DjJf-33" value="Default" style="rhombus;whiteSpace=wrap;html=1;" vertex="1" parent="WIyWlLk6GJQsqaUBKTNV-1">
          <mxGeometry x="340" y="1150" width="80" height="80" as="geometry" />
        </mxCell>
        <mxCell id="86Y6fayjuDsxbSv3DjJf-35" value="False" style="text;html=1;strokeColor=none;fillColor=none;align=center;verticalAlign=middle;whiteSpace=wrap;rounded=0;" vertex="1" parent="WIyWlLk6GJQsqaUBKTNV-1">
          <mxGeometry x="320" y="700" width="60" height="30" as="geometry" />
        </mxCell>
        <mxCell id="86Y6fayjuDsxbSv3DjJf-36" value="False" style="text;html=1;strokeColor=none;fillColor=none;align=center;verticalAlign=middle;whiteSpace=wrap;rounded=0;" vertex="1" parent="WIyWlLk6GJQsqaUBKTNV-1">
          <mxGeometry x="320" y="830" width="60" height="30" as="geometry" />
        </mxCell>
        <mxCell id="86Y6fayjuDsxbSv3DjJf-37" value="False" style="text;html=1;strokeColor=none;fillColor=none;align=center;verticalAlign=middle;whiteSpace=wrap;rounded=0;" vertex="1" parent="WIyWlLk6GJQsqaUBKTNV-1">
          <mxGeometry x="330" y="1010" width="60" height="30" as="geometry" />
        </mxCell>
        <mxCell id="86Y6fayjuDsxbSv3DjJf-38" value="False" style="text;html=1;strokeColor=none;fillColor=none;align=center;verticalAlign=middle;whiteSpace=wrap;rounded=0;" vertex="1" parent="WIyWlLk6GJQsqaUBKTNV-1">
          <mxGeometry x="320" y="1120" width="60" height="30" as="geometry" />
        </mxCell>
        <mxCell id="86Y6fayjuDsxbSv3DjJf-42" style="edgeStyle=orthogonalEdgeStyle;rounded=0;orthogonalLoop=1;jettySize=auto;html=1;exitX=1;exitY=0.5;exitDx=0;exitDy=0;entryX=0;entryY=0.5;entryDx=0;entryDy=0;" edge="1" parent="WIyWlLk6GJQsqaUBKTNV-1" source="86Y6fayjuDsxbSv3DjJf-39" target="86Y6fayjuDsxbSv3DjJf-41">
          <mxGeometry relative="1" as="geometry" />
        </mxCell>
        <mxCell id="86Y6fayjuDsxbSv3DjJf-39" value="List all books in the library" style="rounded=1;whiteSpace=wrap;html=1;" vertex="1" parent="WIyWlLk6GJQsqaUBKTNV-1">
          <mxGeometry x="460" y="630" width="120" height="60" as="geometry" />
        </mxCell>
        <mxCell id="86Y6fayjuDsxbSv3DjJf-46" style="edgeStyle=orthogonalEdgeStyle;rounded=0;orthogonalLoop=1;jettySize=auto;html=1;exitX=1;exitY=0.5;exitDx=0;exitDy=0;entryX=1;entryY=0.5;entryDx=0;entryDy=0;" edge="1" parent="WIyWlLk6GJQsqaUBKTNV-1" source="86Y6fayjuDsxbSv3DjJf-41" target="86Y6fayjuDsxbSv3DjJf-15">
          <mxGeometry relative="1" as="geometry">
            <Array as="points">
              <mxPoint x="680" y="660" />
              <mxPoint x="680" y="410" />
            </Array>
          </mxGeometry>
        </mxCell>
        <mxCell id="86Y6fayjuDsxbSv3DjJf-41" value="Output book names &lt;br&gt;and their availability" style="shape=parallelogram;perimeter=parallelogramPerimeter;whiteSpace=wrap;html=1;fixedSize=1;" vertex="1" parent="WIyWlLk6GJQsqaUBKTNV-1">
          <mxGeometry x="600" y="630" width="150" height="60" as="geometry" />
        </mxCell>
        <mxCell id="86Y6fayjuDsxbSv3DjJf-43" value="True" style="text;html=1;strokeColor=none;fillColor=none;align=center;verticalAlign=middle;whiteSpace=wrap;rounded=0;" vertex="1" parent="WIyWlLk6GJQsqaUBKTNV-1">
          <mxGeometry x="400" y="630" width="60" height="30" as="geometry" />
        </mxCell>
        <mxCell id="86Y6fayjuDsxbSv3DjJf-49" style="edgeStyle=orthogonalEdgeStyle;rounded=0;orthogonalLoop=1;jettySize=auto;html=1;exitX=1;exitY=0.5;exitDx=0;exitDy=0;" edge="1" parent="WIyWlLk6GJQsqaUBKTNV-1" source="86Y6fayjuDsxbSv3DjJf-44" target="86Y6fayjuDsxbSv3DjJf-48">
          <mxGeometry relative="1" as="geometry" />
        </mxCell>
        <mxCell id="86Y6fayjuDsxbSv3DjJf-44" value="Input a name &lt;br&gt;of book to borrow" style="shape=parallelogram;perimeter=parallelogramPerimeter;whiteSpace=wrap;html=1;fixedSize=1;" vertex="1" parent="WIyWlLk6GJQsqaUBKTNV-1">
          <mxGeometry x="450" y="755" width="120" height="60" as="geometry" />
        </mxCell>
        <mxCell id="86Y6fayjuDsxbSv3DjJf-52" style="edgeStyle=orthogonalEdgeStyle;rounded=0;orthogonalLoop=1;jettySize=auto;html=1;exitX=0.5;exitY=0;exitDx=0;exitDy=0;entryX=0;entryY=0.25;entryDx=0;entryDy=0;" edge="1" parent="WIyWlLk6GJQsqaUBKTNV-1" source="86Y6fayjuDsxbSv3DjJf-48" target="86Y6fayjuDsxbSv3DjJf-50">
          <mxGeometry relative="1" as="geometry" />
        </mxCell>
        <mxCell id="86Y6fayjuDsxbSv3DjJf-78" style="edgeStyle=orthogonalEdgeStyle;rounded=0;orthogonalLoop=1;jettySize=auto;html=1;exitX=0.5;exitY=1;exitDx=0;exitDy=0;entryX=0;entryY=0.5;entryDx=0;entryDy=0;" edge="1" parent="WIyWlLk6GJQsqaUBKTNV-1" source="86Y6fayjuDsxbSv3DjJf-48" target="86Y6fayjuDsxbSv3DjJf-77">
          <mxGeometry relative="1" as="geometry" />
        </mxCell>
        <mxCell id="86Y6fayjuDsxbSv3DjJf-48" value="Is book available?" style="rhombus;whiteSpace=wrap;html=1;" vertex="1" parent="WIyWlLk6GJQsqaUBKTNV-1">
          <mxGeometry x="620" y="745" width="80" height="80" as="geometry" />
        </mxCell>
        <mxCell id="86Y6fayjuDsxbSv3DjJf-54" style="edgeStyle=orthogonalEdgeStyle;rounded=0;orthogonalLoop=1;jettySize=auto;html=1;exitX=1;exitY=0.5;exitDx=0;exitDy=0;entryX=1;entryY=0.5;entryDx=0;entryDy=0;" edge="1" parent="WIyWlLk6GJQsqaUBKTNV-1" source="86Y6fayjuDsxbSv3DjJf-50" target="86Y6fayjuDsxbSv3DjJf-15">
          <mxGeometry relative="1" as="geometry">
            <Array as="points">
              <mxPoint x="880" y="740" />
              <mxPoint x="880" y="410" />
            </Array>
          </mxGeometry>
        </mxCell>
        <mxCell id="86Y6fayjuDsxbSv3DjJf-50" value="Borrow a book (book is no longer available)" style="rounded=1;whiteSpace=wrap;html=1;" vertex="1" parent="WIyWlLk6GJQsqaUBKTNV-1">
          <mxGeometry x="740" y="710" width="120" height="60" as="geometry" />
        </mxCell>
        <mxCell id="86Y6fayjuDsxbSv3DjJf-55" style="edgeStyle=orthogonalEdgeStyle;rounded=0;orthogonalLoop=1;jettySize=auto;html=1;exitX=1;exitY=0.5;exitDx=0;exitDy=0;entryX=1;entryY=0.5;entryDx=0;entryDy=0;" edge="1" parent="WIyWlLk6GJQsqaUBKTNV-1" target="86Y6fayjuDsxbSv3DjJf-15">
          <mxGeometry relative="1" as="geometry">
            <mxPoint x="860" y="830" as="sourcePoint" />
            <Array as="points">
              <mxPoint x="880" y="830" />
              <mxPoint x="880" y="410" />
            </Array>
          </mxGeometry>
        </mxCell>
        <mxCell id="86Y6fayjuDsxbSv3DjJf-56" style="edgeStyle=orthogonalEdgeStyle;rounded=0;orthogonalLoop=1;jettySize=auto;html=1;exitX=1;exitY=0.5;exitDx=0;exitDy=0;" edge="1" parent="WIyWlLk6GJQsqaUBKTNV-1" source="86Y6fayjuDsxbSv3DjJf-57" target="86Y6fayjuDsxbSv3DjJf-60">
          <mxGeometry relative="1" as="geometry" />
        </mxCell>
        <mxCell id="86Y6fayjuDsxbSv3DjJf-57" value="Input a name &lt;br&gt;of book to return" style="shape=parallelogram;perimeter=parallelogramPerimeter;whiteSpace=wrap;html=1;fixedSize=1;" vertex="1" parent="WIyWlLk6GJQsqaUBKTNV-1">
          <mxGeometry x="450" y="925" width="120" height="60" as="geometry" />
        </mxCell>
        <mxCell id="86Y6fayjuDsxbSv3DjJf-58" style="edgeStyle=orthogonalEdgeStyle;rounded=0;orthogonalLoop=1;jettySize=auto;html=1;exitX=0.5;exitY=0;exitDx=0;exitDy=0;entryX=0;entryY=0.25;entryDx=0;entryDy=0;" edge="1" parent="WIyWlLk6GJQsqaUBKTNV-1" source="86Y6fayjuDsxbSv3DjJf-60" target="86Y6fayjuDsxbSv3DjJf-61">
          <mxGeometry relative="1" as="geometry" />
        </mxCell>
        <mxCell id="86Y6fayjuDsxbSv3DjJf-60" value="Is book not available?" style="rhombus;whiteSpace=wrap;html=1;" vertex="1" parent="WIyWlLk6GJQsqaUBKTNV-1">
          <mxGeometry x="620" y="915" width="80" height="80" as="geometry" />
        </mxCell>
        <mxCell id="86Y6fayjuDsxbSv3DjJf-69" style="edgeStyle=orthogonalEdgeStyle;rounded=0;orthogonalLoop=1;jettySize=auto;html=1;exitX=1;exitY=0.5;exitDx=0;exitDy=0;entryX=1;entryY=0.5;entryDx=0;entryDy=0;" edge="1" parent="WIyWlLk6GJQsqaUBKTNV-1" source="86Y6fayjuDsxbSv3DjJf-61" target="86Y6fayjuDsxbSv3DjJf-15">
          <mxGeometry relative="1" as="geometry">
            <Array as="points">
              <mxPoint x="880" y="910" />
              <mxPoint x="880" y="410" />
            </Array>
          </mxGeometry>
        </mxCell>
        <mxCell id="86Y6fayjuDsxbSv3DjJf-61" value="Return a book (book is now available)" style="rounded=1;whiteSpace=wrap;html=1;" vertex="1" parent="WIyWlLk6GJQsqaUBKTNV-1">
          <mxGeometry x="740" y="880" width="120" height="60" as="geometry" />
        </mxCell>
        <mxCell id="86Y6fayjuDsxbSv3DjJf-70" style="edgeStyle=orthogonalEdgeStyle;rounded=0;orthogonalLoop=1;jettySize=auto;html=1;exitX=1;exitY=0.5;exitDx=0;exitDy=0;entryX=1;entryY=0.5;entryDx=0;entryDy=0;" edge="1" parent="WIyWlLk6GJQsqaUBKTNV-1" target="86Y6fayjuDsxbSv3DjJf-15">
          <mxGeometry relative="1" as="geometry">
            <mxPoint x="860" y="1000" as="sourcePoint" />
            <Array as="points">
              <mxPoint x="880" y="1000" />
              <mxPoint x="880" y="410" />
            </Array>
          </mxGeometry>
        </mxCell>
        <mxCell id="86Y6fayjuDsxbSv3DjJf-63" value="True" style="text;html=1;strokeColor=none;fillColor=none;align=center;verticalAlign=middle;whiteSpace=wrap;rounded=0;" vertex="1" parent="WIyWlLk6GJQsqaUBKTNV-1">
          <mxGeometry x="400" y="750" width="60" height="30" as="geometry" />
        </mxCell>
        <mxCell id="86Y6fayjuDsxbSv3DjJf-65" value="Yes" style="text;html=1;strokeColor=none;fillColor=none;align=center;verticalAlign=middle;whiteSpace=wrap;rounded=0;" vertex="1" parent="WIyWlLk6GJQsqaUBKTNV-1">
          <mxGeometry x="610" y="725" width="60" height="30" as="geometry" />
        </mxCell>
        <mxCell id="86Y6fayjuDsxbSv3DjJf-66" value="Yes" style="text;html=1;strokeColor=none;fillColor=none;align=center;verticalAlign=middle;whiteSpace=wrap;rounded=0;" vertex="1" parent="WIyWlLk6GJQsqaUBKTNV-1">
          <mxGeometry x="600" y="895" width="60" height="30" as="geometry" />
        </mxCell>
        <mxCell id="86Y6fayjuDsxbSv3DjJf-67" value="No" style="text;html=1;strokeColor=none;fillColor=none;align=center;verticalAlign=middle;whiteSpace=wrap;rounded=0;" vertex="1" parent="WIyWlLk6GJQsqaUBKTNV-1">
          <mxGeometry x="600" y="815" width="60" height="30" as="geometry" />
        </mxCell>
        <mxCell id="86Y6fayjuDsxbSv3DjJf-80" style="edgeStyle=orthogonalEdgeStyle;rounded=0;orthogonalLoop=1;jettySize=auto;html=1;exitX=1;exitY=0.5;exitDx=0;exitDy=0;entryX=0;entryY=0.5;entryDx=0;entryDy=0;" edge="1" parent="WIyWlLk6GJQsqaUBKTNV-1" source="86Y6fayjuDsxbSv3DjJf-68" target="86Y6fayjuDsxbSv3DjJf-79">
          <mxGeometry relative="1" as="geometry">
            <Array as="points">
              <mxPoint x="660" y="1010" />
            </Array>
          </mxGeometry>
        </mxCell>
        <mxCell id="86Y6fayjuDsxbSv3DjJf-68" value="No" style="text;html=1;strokeColor=none;fillColor=none;align=center;verticalAlign=middle;whiteSpace=wrap;rounded=0;" vertex="1" parent="WIyWlLk6GJQsqaUBKTNV-1">
          <mxGeometry x="600" y="980" width="60" height="30" as="geometry" />
        </mxCell>
        <mxCell id="86Y6fayjuDsxbSv3DjJf-71" value="True" style="text;html=1;strokeColor=none;fillColor=none;align=center;verticalAlign=middle;whiteSpace=wrap;rounded=0;" vertex="1" parent="WIyWlLk6GJQsqaUBKTNV-1">
          <mxGeometry x="400" y="925" width="60" height="30" as="geometry" />
        </mxCell>
        <mxCell id="86Y6fayjuDsxbSv3DjJf-76" style="edgeStyle=orthogonalEdgeStyle;rounded=0;orthogonalLoop=1;jettySize=auto;html=1;exitX=1;exitY=0.5;exitDx=0;exitDy=0;entryX=0;entryY=0.5;entryDx=0;entryDy=0;" edge="1" parent="WIyWlLk6GJQsqaUBKTNV-1" source="86Y6fayjuDsxbSv3DjJf-72" target="86Y6fayjuDsxbSv3DjJf-75">
          <mxGeometry relative="1" as="geometry" />
        </mxCell>
        <mxCell id="86Y6fayjuDsxbSv3DjJf-72" value="Output: &quot;See &lt;br&gt;you soon!&quot;" style="shape=parallelogram;perimeter=parallelogramPerimeter;whiteSpace=wrap;html=1;fixedSize=1;" vertex="1" parent="WIyWlLk6GJQsqaUBKTNV-1">
          <mxGeometry x="450" y="1060" width="120" height="60" as="geometry" />
        </mxCell>
        <mxCell id="86Y6fayjuDsxbSv3DjJf-74" value="True" style="text;html=1;strokeColor=none;fillColor=none;align=center;verticalAlign=middle;whiteSpace=wrap;rounded=0;" vertex="1" parent="WIyWlLk6GJQsqaUBKTNV-1">
          <mxGeometry x="400" y="1060" width="60" height="30" as="geometry" />
        </mxCell>
        <mxCell id="86Y6fayjuDsxbSv3DjJf-75" value="Finish" style="ellipse;whiteSpace=wrap;html=1;" vertex="1" parent="WIyWlLk6GJQsqaUBKTNV-1">
          <mxGeometry x="950" y="1050" width="120" height="80" as="geometry" />
        </mxCell>
        <mxCell id="86Y6fayjuDsxbSv3DjJf-77" value="Display an error message" style="shape=parallelogram;perimeter=parallelogramPerimeter;whiteSpace=wrap;html=1;fixedSize=1;" vertex="1" parent="WIyWlLk6GJQsqaUBKTNV-1">
          <mxGeometry x="740" y="815" width="120" height="60" as="geometry" />
        </mxCell>
        <mxCell id="86Y6fayjuDsxbSv3DjJf-79" value="Display an error message" style="shape=parallelogram;perimeter=parallelogramPerimeter;whiteSpace=wrap;html=1;fixedSize=1;" vertex="1" parent="WIyWlLk6GJQsqaUBKTNV-1">
          <mxGeometry x="740" y="980" width="120" height="60" as="geometry" />
        </mxCell>
        <mxCell id="86Y6fayjuDsxbSv3DjJf-85" style="edgeStyle=orthogonalEdgeStyle;rounded=0;orthogonalLoop=1;jettySize=auto;html=1;exitX=1;exitY=0.5;exitDx=0;exitDy=0;entryX=1;entryY=0.5;entryDx=0;entryDy=0;" edge="1" parent="WIyWlLk6GJQsqaUBKTNV-1" source="86Y6fayjuDsxbSv3DjJf-83" target="86Y6fayjuDsxbSv3DjJf-15">
          <mxGeometry relative="1" as="geometry">
            <Array as="points">
              <mxPoint x="880" y="1190" />
              <mxPoint x="880" y="410" />
            </Array>
          </mxGeometry>
        </mxCell>
        <mxCell id="86Y6fayjuDsxbSv3DjJf-83" value="Output: &quot;Invalid choice&quot;" style="shape=parallelogram;perimeter=parallelogramPerimeter;whiteSpace=wrap;html=1;fixedSize=1;" vertex="1" parent="WIyWlLk6GJQsqaUBKTNV-1">
          <mxGeometry x="450" y="1160" width="120" height="60" as="geometry" />
        </mxCell>
      </root>
    </mxGraphModel>
  </diagram>
</mxfile>
